# xmcd
#
# Track frame offsets: 
#        150
#        11946
#        22348
#        33084
#        44721
#        54640
#        65888
#        75233
#        87416
#        97004
#        107495
#        119053
#        129670
#        138757
#        149467
#        160875
#        173100
#        185061
#        196961
#        207360
#        218540
#        230060
#        240640
#        250726
#        260058
#        270236
#        281097
#        291763
#        302640
#        313160
#        324633
#        335406
#        346419
#
# Disc length: 4764 seconds
#
# Revision: 0
# Processed by: cddbd v1.5.2PL0 Copyright (c) Steve Scherf et al.
# Submitted via: ExactAudioCopy v0.95b4
#
DISCID=02129a21
DTITLE=Johnny Horton - Take Me Like I Am
DYEAR=1900
DGENRE=Hillbilly
TTITLE0=Take Me Like I Am
TTITLE1=Tennessee Jive
TTITLE2=Candy Jones (acetate version)
TTITLE3=Smokey Joe's Barbecue
TTITLE4=Two Red Lips And Warm Red Wine
TTITLE5=The Devil Made A Masterpiece
TTITLE6=S.S. Lureline
TTITLE7=Shadows On The Old Bayou
TTITLE8=Broken Hearted Gypsy
TTITLE9=Bawlin' Baby (& Billy Barton)
TTITLE10=Shotgun Boogie
TTITLE11=No True Love
TTITLE12=Ha Ha And Moonface
TTITLE13=She Knows Why
TTITLE14=You, You, You
TTITLE15=The Train With The Rhumba Beat
TTITLE16=You Don't Move Me Baby Anymore
TTITLE17=Hey, Sweet, Sweet Thing
TTITLE18=Move Down The Line
TTITLE19=On The Banks Of The Beautiful Nile
TTITLE20=Mister Moonlight
TTITLE21=Out In New Mexico
TTITLE22=It's A Long Rocky Road (overdub)
TTITLE23=Talk Gobbler Talk (Old Gobbler, The Hound Dog) (overdub)
TTITLE24=In My Home In Shelby County (overdub)
TTITLE25=First Train Headin' South
TTITLE26=Ridin' The Sunshine Special
TTITLE27=I'll Do It Everytime
TTITLE28=Seven Come Eleven
TTITLE29=You're My Baby
TTITLE30=Goodbye Lonesome, Hello Baby Doll
TTITLE31=Rhythm In My Baby's Walk
TTITLE32=Big Wheels Rollin'
EXTD=
EXTT0=
EXTT1=
EXTT2=
EXTT3=
EXTT4=
EXTT5=
EXTT6=
EXTT7=
EXTT8=
EXTT9=
EXTT10=
EXTT11=
EXTT12=
EXTT13=
EXTT14=
EXTT15=
EXTT16=
EXTT17=
EXTT18=
EXTT19=
EXTT20=
EXTT21=
EXTT22=
EXTT23=
EXTT24=
EXTT25=
EXTT26=
EXTT27=
EXTT28=
EXTT29=
EXTT30=
EXTT31=
EXTT32=
PLAYORDER=
